<svg id="art" xmlns="http://www.w3.org/2000/svg" viewBox="0 0 768 260"><defs><style>.cls-1{fill:#cbcbcb;}.cls-2{fill:#c78982;}.cls-3{fill:#fff;}.cls-4{fill:#99644d;}.cls-5{fill:#ff7d49;}</style></defs><title>whyRideWithUs_tablet</title><path class="cls-1" d="M714,233.58l-31.52-98.81a64.52,64.52,0,0,0-61.46-44.91H0V260H77.8l131-13.31L340.59,260h76.6l92.55-8,91.57,8h93.44A20.26,20.26,0,0,0,714,233.58Z"/><path class="cls-2" d="M160.8,86.28c.08.7.18,1.39.3,2.08.05.35.11.7.18,1.05a48.07,48.07,0,0,0,2.28,8v0a.29.29,0,0,0,.07.14c.06.19.13.38.2.56s.24.59.38.9a2.4,2.4,0,0,0,.13.31l.18.43c.18.42.38.85.61,1.29s.56,1.1.81,1.62l0,.05,0,.05h0a1.38,1.38,0,0,1,.05.16.9.9,0,0,1,.05.16c.05.07.11.15.15.22a.22.22,0,0,1,0,.06l.19.3c.05.11.12.2.17.3s.12.19.17.28l.06.13a3.92,3.92,0,0,0,.21.36s0,0,0,0c.11.18.22.35.33.52l.3.49a5.25,5.25,0,0,0,.39.59l.16.24.17.26a1.75,1.75,0,0,1,.17.25,2.81,2.81,0,0,1,.18.24l.13.17h0a1.1,1.1,0,0,1,.14.2s0,.05.08.11c.16.24.32.47.5.71a8.6,8.6,0,0,0,.54.69s0,0,0,0a0,0,0,0,1,0,0c.36.49.72.92,1.13,1.4l0,.05,0,.05.27.33c.14.17.27.32.41.46l.41.45a.38.38,0,0,1,.11.12.28.28,0,0,0,.12.11h0l.11.14.11.14c.15.14.28.27.42.42s.27.3.41.45l.46.39,1,1,.06.05,0,0,.05,0,.08.07.09.07.13.12.15.12c.16.16.33.33.52.5s.39.34.6.5h0s0,0,0,0h0c.32.24.65.53,1,.8l.35.26.21.17.51.4a.9.9,0,0,1,.19.15l.55.42.24.17.26.18c.18.12.35.22.51.34l.54.35c.15.11.28.22.47.34l.57.35.57.35.34.18.06.05a.55.55,0,0,0,.13.07v47.48H235V132.11h0l.56.19,5.09,1.75a12.59,12.59,0,0,0,1.53.42c.3.06.6.12.89.15a10,10,0,0,0,3.29-.25,8.72,8.72,0,0,0,2.18-.79l.8-.45c.25-.16.5-.32.73-.5l.09-.07a2.47,2.47,0,0,0,.33-.25,2,2,0,0,0,.31-.27c.22-.21.45-.42.66-.64l.31-.35.28-.36a3,3,0,0,0,.26-.37,3.21,3.21,0,0,0,.22-.31c.14-.22.27-.45.4-.69a2.72,2.72,0,0,0,.21-.43,3.64,3.64,0,0,0,.22-.45c.05-.16.13-.31.18-.46.11-.32.22-.63.3-1,0-.16.07-.33.11-.5s.07-.32.11-.47,0-.05,0-.08,0-.31.05-.45l.57-5.26.43-4.06,1-9.46,5.54-2.56a3.36,3.36,0,0,0,1.33-5l-6-7.88a6.67,6.67,0,0,1-.86-6.08,20.08,20.08,0,0,0,1.09-10c-.05-.51-.17-1-.26-1.48A47.88,47.88,0,0,0,249.18,56c-.21-.32-.43-.62-.65-.93-.44-.62-.91-1.23-1.39-1.82s-1-1.19-1.49-1.77-1-1.14-1.57-1.69l-.82-.81q-.68-.68-1.39-1.33l-.32-.28c-.46-.41-.94-.82-1.42-1.22s-1.08-.89-1.63-1.32h0c-.56-.42-1.13-.84-1.71-1.24s-1.13-.78-1.71-1.15l-.11-.06c-.57-.37-1.15-.72-1.74-1.07h0c-.61-.36-1.23-.7-1.86-1s-1-.52-1.53-.76c-.28-.15-.57-.28-.86-.41-.49-.22-1-.44-1.47-.64l-1-.4c-.34-.14-.66-.26-1-.38-.55-.21-1.11-.4-1.67-.58-.32-.12-.64-.21-1-.31-.5-.16-1-.3-1.48-.43-.7-.18-1.39-.36-2.1-.52s-1.42-.31-2.14-.43l-1.62-.26-1.63-.21-1.11-.11-.57-.05-.19,0-.37,0h0v0c-.24,0-.39-.08-.64-.11a40.91,40.91,0,0,0-4.24-.13l-.84,0q-.82,0-1.65.06a42.41,42.41,0,0,0-4.78.51h-.08c-.62.11-1.25.22-1.88.36l-.92.2q-.93.21-1.87.47-.76.22-1.52.47l-.77.23-1.24.38c-.57.25-1.09.45-1.66.65a5.24,5.24,0,0,1-.52.21l-1.4.62c-.16.08-.37.17-.58.25a2.12,2.12,0,0,0-.38.19c-.38.19-.74.38-1.14.57,0,.05,0,.05-.09.05L185,40c-.39.21-.78.41-1.15.63l-.19.12c-.3.17-.57.35-.84.52l-.86.53c-.09,0-.21.13-.31.17-.49.31-1,.66-1.39,1,0,0,0,0,0,0a.59.59,0,0,0-.16.11l-.17.13c-.49.31-.92.67-1.39,1h0l-1,.8q-1.52,1.23-2.91,2.59c-.31.3-.61.61-.92.92l-.9.95c-.3.33-.59.64-.88,1s-.56.66-.83,1-.62.74-.9,1.07-.38.47-.53.71a1.19,1.19,0,0,0-.11.14c-.09.13-.19.25-.27.39-.28.39-.54.77-.8,1.17-.05.08-.12.16-.17.23s-.19.27-.27.41l-.11.15s-.05.09-.08.15a10.53,10.53,0,0,0-.64,1c-.18.37-.39.7-.58,1a3.39,3.39,0,0,1-.2.33.12.12,0,0,0,0,.05s0,0,0,0,0,0,0,0a1,1,0,0,1-.05.11h0a13.06,13.06,0,0,0-.78,1.48c-.12.19-.24.43-.36.66l-.13.26c-.12.26-.22.55-.36.79h0c-.14.34-.31.62-.44,1s-.24.62-.35.93c0,.11-.07.21-.12.33l0,.09v0c0,.07-.07.14-.11.21a3,3,0,0,0-.16.39,1.35,1.35,0,0,1-.12.33c-.12.33-.24.63-.35.93l-.07.23c0,.11-.07.21-.11.32a1.19,1.19,0,0,0,0,.19.44.44,0,0,0-.07.24,4.75,4.75,0,0,0-.28.85l-.06.26c-.17.54-.34,1.09-.47,1.67,0,.15-.07.28-.11.43s-.12.51-.17.77-.13.53-.18.8a.73.73,0,0,1,0,.15c0,.05,0,.11,0,.15a2.45,2.45,0,0,0-.05.3,15.67,15.67,0,0,0-.35,2.27,9.72,9.72,0,0,0-.19,1.15c0,.39-.08.8-.13,1.22A45.22,45.22,0,0,0,160.8,86.28Z"/><path d="M163.55,97.43c0,.06,0,.1.1.15a9.79,9.79,0,0,0,.57,1.46,3.07,3.07,0,0,0,.12.31c.25.57.49,1.14.79,1.71s.55,1.11.81,1.63l.09.11c0,.1.08.21.13.31.27.37.48.8.69,1.17.09.16.22.37.32.53.21.36.44.68.6,1a6.44,6.44,0,0,0,.4.59c.22.31.44.68.66,1a3.12,3.12,0,0,1,.27.36s0,.06.09.12a11.66,11.66,0,0,0,1,1.39.06.06,0,0,1,0,.06c.36.48.71.91,1.12,1.4l.09.11.28.33c.27.33.54.59.82.92.09.06.13.17.22.22l.23.27a11,11,0,0,1,.82.87l.47.39c.32.33,1.14,1.16,1.29,1.27s.17.17.28.22,1.64,1.43,3.27,2.82a14.51,14.51,0,0,1,4.38,7,.08.08,0,0,0,0,0L196.18,108a7.45,7.45,0,0,0-.92-9.88h0l-2.63-2.45a10.17,10.17,0,0,1,4.06-17.19,10.38,10.38,0,0,1,3.76-.38,10.16,10.16,0,0,1,8.86,7.27l.71,2.43,1.14,3.88a2.35,2.35,0,0,0,.26-.08,2.42,2.42,0,0,0,1-.65,9.06,9.06,0,0,0,1.06-3c.35-1,1.14-2.05,2.18-2a5,5,0,0,0-.27-1,2.57,2.57,0,0,0,2.82-1.35,11,11,0,0,0,1-3.33,7.61,7.61,0,0,0,2.8-4,4.26,4.26,0,0,0,.22-.83,10.76,10.76,0,0,0,0-3.35,11.11,11.11,0,0,0-.27-1.43L220.27,64c-1.39-5.28,2.7-9.79,8.21-9.79h19.4A46.54,46.54,0,0,0,243.25,49,49.55,49.55,0,0,0,212.8,34.82l-1.14-.1v0c-.25,0-.4-.08-.64-.1a36.29,36.29,0,0,0-4.24-.13l-.86,0a53,53,0,0,0-6.5.59,41.7,41.7,0,0,0-6.2,1.5c-.66.19-1.33.44-2,.63s-1.09.44-1.66.64a3.49,3.49,0,0,1-.52.21l-1.41.63a5.76,5.76,0,0,1-.57.25c-.52.25-1,.51-1.52.76,0,0,0,0-.1,0-.59.35-1.21.63-1.79,1s-1.11.71-1.69,1.06c-.1,0-.21.13-.32.17-.48.3-1,.67-1.39,1a2.08,2.08,0,0,0-.36.27c-.48.3-.92.67-1.4,1a44.61,44.61,0,0,0-7.44,7.24c-.33.36-.61.74-.9,1.06a9,9,0,0,0-.61.85c-.4.52-.75,1-1.1,1.55a10.25,10.25,0,0,0-.63.94,9.89,9.89,0,0,0-.63,1c-.25.48-.54.9-.77,1.33-.06.1-.07.14-.13.24a14.6,14.6,0,0,0-.79,1.48c-.11.19-.23.43-.36.67s-.31.71-.49,1.06-.3.63-.44,1-.32.82-.46,1.25a4.1,4.1,0,0,0-.31.73c-.13.44-.33.87-.46,1.26a3.48,3.48,0,0,0-.21.73.62.62,0,0,0-.08.25,5.63,5.63,0,0,0-.35,1.12c-.21.68-.41,1.36-.58,2.09-.1.49-.25,1-.35,1.56,0,.21-.08.4-.1.59A17.07,17.07,0,0,0,161,74.5a19.05,19.05,0,0,0-.32,2.37A46.13,46.13,0,0,0,163.55,97.43Z"/><path d="M256.1,106.71l-1,9.47-.43,4.06-.56,5.23L254,126s0,.06,0,.08l-.09.47c0,.17-.07.34-.12.5a7.79,7.79,0,0,1-.3,1c-.05.16-.12.31-.18.46s-.14.31-.21.45a4.14,4.14,0,0,1-.22.43c-.13.23-.26.46-.4.69s-.14.21-.21.31-.18.25-.27.37l-.28.36-.31.35c-.21.22-.43.43-.65.64s-.42.36-.64.53l-.09.07c-.23.18-.47.34-.73.5l-.8.45a11.25,11.25,0,0,1-2.18.79,10.27,10.27,0,0,1-3.28.23,6.54,6.54,0,0,1-.9-.13,10.91,10.91,0,0,1-1.53-.41l-5.09-1.76-.56-.19h0v0l-14.23-4.88a7.91,7.91,0,0,1-5.24-6.32l-.85-4.72L210.27,92l-1.44-8,10.41-3.76h0l3,19.86a13.91,13.91,0,0,0,6.71,9.94A12,12,0,0,0,242.57,109a11.91,11.91,0,0,1,7.59-2.73c.31,0,.62,0,.93,0Z"/><path class="cls-3" d="M340.59,260l-13.65-42.8c-4.76-16.7-17.77-29.45-34.06-33.38l-38.7-9.35C242.93,171.75,235,161.28,235,149.24v-1.45h-6.85a7.55,7.55,0,0,0-2.56.44,7.86,7.86,0,0,0-2.64,1.57l-13.16,11.83-14.4-12a8,8,0,0,0-2.42-1.38,7.69,7.69,0,0,0-2.56-.44h-6.88v1.45c0,12-7.93,22.51-19.19,25.23l-38.83,9.35c-16.29,3.93-29.29,16.68-34.06,33.38L77.8,260Z"/><path class="cls-1" d="M250.51,260H224l-78.43-91.51c1.46-.08,26.47-.12,26.47-.12Z"/><circle cx="523.03" cy="75.24" r="18.78"/><path class="cls-4" d="M543.61,110.23l-6.27,3.59-3,17.07a10.94,10.94,0,0,1-11.72,8.8c-.38,0-7.9-1.84-14.81-3.87l-3.86,30.66L466,161.68l3.14-29.08a9.76,9.76,0,0,0-4.35-9.13A45.36,45.36,0,0,1,451,108.85q-.58-1-1.1-2c-.61-1.17-1.18-2.38-1.69-3.61A44.89,44.89,0,0,1,444.82,86c0-24.51,19.51-39.38,43.85-40.07l1.31,0c15.5,0,31.15,9.74,38,19.07a43.66,43.66,0,0,1,4.19,7,41,41,0,0,1,3.55,18.33,7.33,7.33,0,0,0,1.49,5c3,3.89,7.84,9.41,7.84,9.41C547,106.78,546.15,108.92,543.61,110.23Z"/><path d="M473.95,104.86l-4.82,27.71a9.61,9.61,0,0,0-1.71-6.54,10.08,10.08,0,0,0-2.64-2.58A45.36,45.36,0,0,1,451,108.85q-.58-1-1.1-2c-.61-1.17-1.18-2.38-1.69-3.61Z"/><circle cx="439.62" cy="45.89" r="25.89"/><path d="M532.11,71.91l-9.86,8.77a103.68,103.68,0,0,1-68.91,26.23c-1.14,0-2.27,0-3.41-.06A44.83,44.83,0,0,1,444.82,86c0-24.51,19.51-39.38,43.85-40.07l1.31,0c15.5,0,31.15,9.74,38,19.07A43.66,43.66,0,0,1,532.11,71.91Z"/><path class="cls-4" d="M490.15,97a9.75,9.75,0,0,1-15.44,7.91h-.77l-1.35-2.08,0,0-.61-1,0-.07A9.75,9.75,0,1,1,490.15,97Z"/><path d="M475.74,123.6l-6.61,9h0a9.61,9.61,0,0,0-1.71-6.54l-3.2-12.2,9.72-9,2.57,4.44A13.06,13.06,0,0,1,475.74,123.6Z"/><polygon points="499.7 47.09 529.69 57.68 529.69 64.33 495.72 61.75 499.7 47.09"/><path class="cls-4" d="M601.31,260H555.41l-40.79-70.65,7.23-4.17a31.4,31.4,0,0,1,42.89,11.49Z"/><path class="cls-5" d="M566.48,260H421.9l-5.48-73.65,23.2-11.16,17.48-9a18.51,18.51,0,0,0,10-14.49l.37-3.36h38.78l-1.54,19.9a9.41,9.41,0,0,0,6.3,9.45l26.88,3.19,5.72,18.49A56.31,56.31,0,0,0,552,216.2l5.43,7.38A49.06,49.06,0,0,1,566.48,260Z"/><path class="cls-1" d="M443.59,260h26.54l78.43-91.51c-1.46-.08-26.47-.12-26.47-.12Z"/><path class="cls-4" d="M456.1,260H416.33l-12.59-41c-3.21-14.15,2.08-30.66,15-33.6a19.84,19.84,0,0,1,4.35-.49c11.13,0,20.59,9.73,23.44,22.28Z"/></svg>